<svg width="694" height="128" viewBox="0 0 694 128" fill="none" xmlns="http://www.w3.org/2000/svg">
<path d="M0 0H694V128H0V0Z" fill="#6C5DD3"/>
<mask id="mask0" mask-type="alpha" maskUnits="userSpaceOnUse" x="0" y="0" width="694" height="128">
<path d="M0 0H694V128H0V0Z" fill="#6C5DD3"/>
</mask>
<g mask="url(#mask0)">
<g opacity="0.5">
<path opacity="0.5" d="M44.7365 40.2192L43.1028 41.1494C37.0568 44.5957 37.7723 50.6894 44.7246 54.7439L360.605 239.307C367.546 243.361 378.087 243.85 384.133 240.404L385.767 239.474C391.813 236.027 391.097 229.934 384.145 225.879L68.2645 41.3163C61.3241 37.2618 50.7825 36.7729 44.7365 40.2192Z" fill="url(#paint0_linear)"/>
<path opacity="0.5" d="M170.533 62.7445L168.899 63.6746C162.853 67.1209 163.569 73.2146 170.521 77.2691L323.089 166.42C330.03 170.475 340.571 170.964 346.617 167.517L348.251 166.587C354.297 163.141 353.581 157.047 346.629 152.993L194.061 63.8416C187.121 59.7871 176.591 59.2982 170.533 62.7445Z" fill="url(#paint1_linear)"/>
<path opacity="0.5" d="M251.218 58.917L249.584 59.8472C243.539 63.2935 244.254 69.3872 251.206 73.4417L538.574 241.178C545.515 245.233 556.056 245.722 562.102 242.275L563.736 241.345C569.782 237.899 569.066 231.805 562.114 227.751L274.746 60.0141C267.806 55.9477 257.264 55.4588 251.218 58.917Z" fill="url(#paint2_linear)"/>
<path opacity="0.5" d="M85.1024 -89.1196L83.4686 -88.1894C77.4227 -84.7431 78.1382 -78.6495 85.0904 -74.595L621.166 239.318C628.106 243.373 638.648 243.861 644.694 240.415L646.327 239.485C652.373 236.039 651.658 229.945 644.706 225.891L108.63 -88.0225C101.678 -92.0889 91.1483 -92.5778 85.1024 -89.1196Z" fill="url(#paint3_linear)"/>
<path opacity="0.5" d="M53.2502 -255.699L51.6165 -254.769C45.5705 -251.323 46.286 -245.229 53.2383 -241.175L655.736 111.256C662.676 115.31 673.218 115.799 679.263 112.353L680.897 111.423C686.943 107.976 686.228 101.883 679.275 97.8283L76.7782 -254.602C69.8259 -258.657 59.2961 -259.158 53.2502 -255.699Z" fill="url(#paint4_linear)"/>
<path opacity="0.5" d="M188.241 -225.243L186.608 -224.313C180.562 -220.867 181.277 -214.773 188.229 -210.719L596.183 27.6495C603.123 31.704 613.665 32.1929 619.711 28.7466L621.345 27.8165C627.39 24.3701 626.675 18.2765 619.723 14.222L211.769 -224.146C204.829 -228.201 194.287 -228.69 188.241 -225.243Z" fill="url(#paint5_linear)"/>
<path opacity="0.5" d="M194.24 -76.3242L192.606 -75.3941C186.56 -71.9478 187.276 -65.8541 194.228 -61.7996L537.178 138.588C544.118 142.642 554.66 143.131 560.706 139.685L562.34 138.755C568.386 135.308 567.67 129.215 560.718 125.16L217.768 -75.2271C210.827 -79.2816 200.298 -79.7825 194.24 -76.3242Z" fill="url(#paint6_linear)"/>
<path opacity="0.5" d="M265.455 -85.697L263.822 -84.7669C257.776 -81.3206 258.491 -75.2269 265.444 -71.1724L393.959 3.91912C400.899 7.97361 411.441 8.46253 417.487 5.01621L419.121 4.08607C425.167 0.639748 424.451 -5.4539 417.499 -9.50839L288.983 -84.5999C282.043 -88.6544 271.513 -89.1434 265.455 -85.697Z" fill="url(#paint7_linear)"/>
<path opacity="0.5" d="M562.537 138.3C559.042 138.3 555.548 137.408 552.429 135.615L460.877 82.9929C456.575 80.5219 451.235 80.5219 446.934 82.9929L371.376 126.418C365.139 130.004 357.388 130.004 351.161 126.418L253.569 70.3435C252.072 69.4782 251.552 67.5692 252.422 66.0795C253.291 64.5898 255.208 64.0724 256.705 64.9377L354.279 121.021C358.58 123.492 363.921 123.492 368.222 121.021L443.779 77.5959C450.016 74.0099 457.767 74.0099 463.995 77.5959L555.547 130.218C559.849 132.689 565.189 132.689 569.49 130.218L711.295 48.7201C712.792 47.8548 714.709 48.3722 715.578 49.8619C716.448 51.3516 715.928 53.2606 714.431 54.1259L572.627 135.624C569.526 137.408 566.032 138.3 562.537 138.3Z" fill="url(#paint8_linear)"/>
<path d="M557.693 114.004L456.086 55.1871C454.638 54.3451 454.638 52.249 456.086 51.407L557.693 -7.40967C560.668 -9.12956 564.332 -9.12956 567.307 -7.40967L668.914 51.407C670.362 52.249 670.362 54.3451 668.914 55.1871L567.307 114.004C564.332 115.733 560.668 115.733 557.693 114.004Z" fill="#493AB7"/>
<path opacity="0.5" d="M562.504 107.3C561.181 107.3 559.848 106.96 558.668 106.279L471.476 55.8657C470.555 55.3282 470 54.3787 470 53.3127C470 52.2468 470.555 51.2973 471.476 50.7598L558.659 0.328304C561.029 -1.04221 563.971 -1.04221 566.332 0.328304L653.524 50.7419C654.445 51.2704 655 52.2289 655 53.2948C655 54.3608 654.445 55.3193 653.524 55.8478L566.341 106.261C565.152 106.96 563.828 107.3 562.504 107.3ZM560 103.941C561.548 104.828 563.461 104.828 564.991 103.941L652.174 53.5277C652.263 53.474 652.308 53.4023 652.308 53.3038C652.308 53.2052 652.263 53.1246 652.174 53.0798L564.982 2.66625C563.444 1.77944 561.53 1.77048 559.991 2.66625L472.808 53.0798C472.719 53.1336 472.674 53.2052 472.674 53.3038C472.674 53.4023 472.719 53.4829 472.808 53.5277L560 103.941Z" fill="url(#paint9_linear)"/>
<path d="M564.514 95.4216C563.581 95.9648 562.428 95.9648 561.495 95.4217L494.453 56.3929C492.466 55.2359 492.466 52.3648 494.453 51.2077L561.486 12.1792C562.419 11.636 563.572 11.636 564.505 12.1791L631.547 51.2079C633.534 52.3649 633.534 55.236 631.547 56.3931L564.514 95.4216Z" fill="#6C5DD3"/>
<path opacity="0.66" d="M558.647 86.9074L504.617 55.7107C502.432 54.4482 502.7 52.2454 505.225 50.7859L558.029 20.2965C560.554 18.837 564.377 18.6758 566.562 19.9384L620.592 51.1351C622.777 52.3977 622.509 54.6004 619.983 56.06L567.18 86.5493C564.646 88.0088 560.831 88.17 558.647 86.9074Z" fill="url(#paint10_linear)"/>
<path d="M504.608 55.7106L509.353 58.4506L558.029 30.352C560.554 28.8925 564.377 28.7403 566.562 30.0028L615.847 58.4595L619.983 56.0687C622.509 54.6092 622.786 52.4064 620.592 51.1439L566.562 19.9472C564.377 18.6846 560.554 18.8458 558.029 20.3053L505.225 50.7947C502.7 52.2453 502.423 54.448 504.608 55.7106Z" fill="#8171F3"/>
<path opacity="0.66" d="M570.52 -62.3068L569.965 -62.6292C567.905 -63.8201 566.231 -62.5575 566.231 -59.8086V74.0911C566.231 76.8401 567.905 80.0367 569.965 81.2277L570.52 81.55C572.579 82.7409 574.254 81.4784 574.254 78.7294V-55.1702C574.254 -57.9192 572.579 -61.1159 570.52 -62.3068Z" fill="url(#paint11_linear)"/>
<path opacity="0.66" d="M585.572 -27.8594L585.017 -28.1818C582.957 -29.3727 581.283 -28.1101 581.283 -25.3612V65.557C581.283 68.306 582.957 71.5026 585.017 72.6936L585.572 73.0159C587.631 74.2068 589.306 72.9443 589.306 70.1953V-20.7229C589.306 -23.4808 587.631 -26.6685 585.572 -27.8594Z" fill="url(#paint12_linear)"/>
<path opacity="0.66" d="M600.625 12.8198L600.069 12.4974C598.01 11.3065 596.335 12.5691 596.335 15.318V57.243C596.335 59.992 598.01 63.1887 600.069 64.3796L600.625 64.7019C602.684 65.8929 604.358 64.6303 604.358 61.8813V19.9563C604.367 17.2074 602.693 14.0107 600.625 12.8198Z" fill="url(#paint13_linear)"/>
<path opacity="0.66" d="M615.551 35.1427L614.996 34.8203C612.937 33.6294 611.262 34.8919 611.262 37.6409V48.9303C611.262 51.6792 612.937 54.8759 614.996 56.0668L615.551 56.3892C617.611 57.5801 619.285 56.3175 619.285 53.5686V42.2792C619.285 39.5303 617.611 36.3336 615.551 35.1427Z" fill="url(#paint14_linear)"/>
<path opacity="0.66" d="M554.68 -62.3068L555.236 -62.6292C557.295 -63.8201 558.969 -62.5575 558.969 -59.8086V74.8402C558.969 77.5892 557.295 80.7858 555.236 81.9768L554.68 82.2991C552.621 83.49 550.946 82.2275 550.946 79.4785V-55.1702C550.937 -57.9192 552.612 -61.1159 554.68 -62.3068Z" fill="url(#paint15_linear)"/>
<path opacity="0.66" d="M539.619 -27.8594L540.174 -28.1818C542.233 -29.3727 543.908 -28.1101 543.908 -25.3612V65.557C543.908 68.306 542.233 71.5026 540.174 72.6936L539.619 73.0159C537.559 74.2068 535.885 72.9443 535.885 70.1953V-20.7229C535.885 -23.4808 537.559 -26.6685 539.619 -27.8594Z" fill="url(#paint16_linear)"/>
<path opacity="0.66" d="M524.567 12.8194L525.122 12.4971C527.182 11.3061 528.856 12.5687 528.856 15.3177V57.2427C528.856 59.9916 527.182 63.1883 525.122 64.3792L524.567 64.7016C522.507 65.8925 520.833 64.6299 520.833 61.881V19.956C520.833 17.207 522.507 14.0103 524.567 12.8194Z" fill="url(#paint17_linear)"/>
<path opacity="0.66" d="M509.649 35.1427L510.204 34.8203C512.263 33.6294 513.938 34.8919 513.938 37.6409V48.9303C513.938 51.6792 512.263 54.8759 510.204 56.0668L509.649 56.3892C507.589 57.5801 505.915 56.3175 505.915 53.5686V42.2792C505.906 39.5303 507.58 36.3336 509.649 35.1427Z" fill="url(#paint18_linear)"/>
<path opacity="0.5" d="M622 -98.6996H503V53.1248H503.018C502.955 53.9716 503.421 54.8005 504.478 55.3977L558.54 86.4525C560.726 87.7093 564.552 87.5489 567.078 86.1049L619.912 55.7542C621.229 54.9966 621.919 54.0429 621.982 53.1248H621.991V-98.6996H622Z" fill="url(#paint19_linear)"/>
<path opacity="0.3" d="M376.649 119.894C377.366 121.157 376.927 122.769 375.664 123.485C374.402 124.201 372.79 123.763 372.074 122.5C371.357 121.237 371.796 119.626 373.059 118.909C374.321 118.184 375.924 118.623 376.649 119.894Z" fill="#D1CBFF"/>
<path opacity="0.6" d="M383.016 116.259C383.732 117.522 383.293 119.133 382.031 119.85C380.768 120.566 379.157 120.127 378.44 118.865C377.724 117.602 378.163 115.99 379.425 115.274C380.688 114.558 382.3 114.997 383.016 116.259Z" fill="#D1CBFF"/>
<path opacity="0.8" d="M389.392 112.633C390.108 113.895 389.67 115.507 388.407 116.223C387.144 116.94 385.533 116.501 384.816 115.238C384.1 113.976 384.539 112.364 385.801 111.648C387.064 110.922 388.676 111.37 389.392 112.633Z" fill="#D1CBFF"/>
<path d="M395.766 108.997C396.483 110.26 396.044 111.872 394.781 112.588C393.519 113.304 391.907 112.865 391.191 111.603C390.474 110.34 390.913 108.729 392.176 108.012C393.438 107.296 395.041 107.735 395.766 108.997Z" fill="#D1CBFF"/>
<path opacity="0.8" d="M402.133 105.371C402.849 106.633 402.411 108.245 401.148 108.961C399.886 109.678 398.274 109.239 397.557 107.976C396.841 106.714 397.28 105.102 398.542 104.386C399.805 103.669 401.417 104.108 402.133 105.371Z" fill="#D1CBFF"/>
<path opacity="0.6" d="M408.509 101.744C409.225 103.007 408.787 104.619 407.524 105.335C406.261 106.051 404.65 105.613 403.933 104.35C403.217 103.088 403.656 101.476 404.918 100.759C406.181 100.034 407.784 100.482 408.509 101.744Z" fill="#D1CBFF"/>
<path opacity="0.3" d="M414.875 98.1087C415.592 99.3712 415.153 100.983 413.891 101.699C412.628 102.416 411.016 101.977 410.3 100.714C409.583 99.4518 410.022 97.84 411.285 97.1237C412.547 96.4073 414.159 96.8461 414.875 98.1087Z" fill="#D1CBFF"/>
<path d="M413.537 110.097C413.612 103.579 404.69 98.1922 393.61 98.0659C382.53 97.9395 373.488 103.121 373.413 109.64C373.339 116.158 382.261 121.545 393.341 121.671C404.421 121.798 413.463 116.616 413.537 110.097Z" fill="url(#paint20_radial)"/>
<path opacity="0.3" d="M514.847 109.444C514.13 110.707 514.569 112.319 515.832 113.035C517.094 113.751 518.706 113.313 519.422 112.05C520.139 110.788 519.7 109.176 518.437 108.459C517.175 107.734 515.572 108.173 514.847 109.444Z" fill="#D1CBFF"/>
<path opacity="0.6" d="M508.48 105.809C507.764 107.072 508.203 108.683 509.465 109.4C510.728 110.116 512.339 109.677 513.056 108.415C513.772 107.152 513.333 105.54 512.071 104.824C510.808 104.108 509.196 104.546 508.48 105.809Z" fill="#D1CBFF"/>
<path opacity="0.8" d="M502.104 102.182C501.388 103.445 501.827 105.057 503.089 105.773C504.352 106.489 505.963 106.051 506.68 104.788C507.396 103.525 506.957 101.914 505.695 101.197C504.432 100.472 502.82 100.92 502.104 102.182Z" fill="#D1CBFF"/>
<path d="M495.73 98.547C495.013 99.8096 495.452 101.421 496.715 102.138C497.977 102.854 499.589 102.415 500.305 101.153C501.022 99.8902 500.583 98.2784 499.32 97.562C498.058 96.8457 496.455 97.2845 495.73 98.547Z" fill="#D1CBFF"/>
<path opacity="0.8" d="M489.363 94.9206C488.647 96.1831 489.085 97.7949 490.348 98.5112C491.611 99.2276 493.222 98.7888 493.939 97.5263C494.655 96.2637 494.216 94.6519 492.954 93.9356C491.691 93.2192 490.079 93.658 489.363 94.9206Z" fill="#D1CBFF"/>
<path opacity="0.6" d="M482.987 91.2944C482.271 92.557 482.709 94.1687 483.972 94.8851C485.235 95.6014 486.846 95.1627 487.563 93.9001C488.279 92.6376 487.84 91.0258 486.578 90.3094C485.315 89.5841 483.712 90.0319 482.987 91.2944Z" fill="#D1CBFF"/>
<path opacity="0.3" d="M476.621 87.6587C475.904 88.9213 476.343 90.533 477.606 91.2494C478.868 91.9657 480.48 91.527 481.196 90.2644C481.913 89.0019 481.474 87.3901 480.211 86.6737C478.949 85.9574 477.337 86.3962 476.621 87.6587Z" fill="#D1CBFF"/>
<path d="M477.959 99.6473C477.885 93.1288 486.806 87.7421 497.886 87.6158C508.966 87.4895 518.009 92.6714 518.083 99.1899C518.157 105.708 509.235 111.095 498.155 111.221C487.075 111.348 478.033 106.166 477.959 99.6473Z" fill="url(#paint21_radial)"/>
<path opacity="0.3" d="M591.432 120.509C592.148 121.771 591.709 123.383 590.447 124.099C589.184 124.816 587.572 124.377 586.856 123.114C586.14 121.852 586.578 120.24 587.841 119.524C589.104 118.798 590.706 119.237 591.432 120.509Z" fill="#D1CBFF"/>
<path opacity="0.6" d="M597.798 116.873C598.514 118.136 598.076 119.748 596.813 120.464C595.551 121.18 593.939 120.742 593.222 119.479C592.506 118.217 592.945 116.605 594.207 115.888C595.47 115.172 597.082 115.611 597.798 116.873Z" fill="#D1CBFF"/>
<path opacity="0.8" d="M604.174 113.247C604.891 114.509 604.452 116.121 603.189 116.837C601.927 117.554 600.315 117.115 599.599 115.852C598.882 114.59 599.321 112.978 600.584 112.262C601.846 111.537 603.458 111.984 604.174 113.247Z" fill="#D1CBFF"/>
<path d="M610.549 109.611C611.265 110.874 610.826 112.486 609.564 113.202C608.301 113.918 606.69 113.48 605.973 112.217C605.257 110.955 605.696 109.343 606.958 108.626C608.221 107.91 609.824 108.349 610.549 109.611Z" fill="#D1CBFF"/>
<path opacity="0.8" d="M616.915 105.985C617.632 107.247 617.193 108.859 615.93 109.576C614.668 110.292 613.056 109.853 612.34 108.591C611.623 107.328 612.062 105.716 613.325 105C614.587 104.284 616.199 104.722 616.915 105.985Z" fill="#D1CBFF"/>
<path opacity="0.6" d="M623.291 102.359C624.008 103.621 623.569 105.233 622.306 105.949C621.044 106.666 619.432 106.227 618.716 104.964C617.999 103.702 618.438 102.09 619.701 101.374C620.963 100.648 622.566 101.096 623.291 102.359Z" fill="#D1CBFF"/>
<path opacity="0.3" d="M629.658 98.723C630.374 99.9856 629.935 101.597 628.673 102.314C627.41 103.03 625.798 102.591 625.082 101.329C624.366 100.066 624.804 98.4544 626.067 97.7381C627.33 97.0217 628.941 97.4605 629.658 98.723Z" fill="#D1CBFF"/>
<path d="M628.319 110.712C628.394 104.193 619.472 98.8065 608.392 98.6801C597.312 98.5538 588.27 103.736 588.195 110.254C588.121 116.773 597.043 122.159 608.123 122.286C619.203 122.412 628.245 117.23 628.319 110.712Z" fill="url(#paint22_radial)"/>
</g>
</g>
<defs>
<linearGradient id="paint0_linear" x1="384.954" y1="239.941" x2="215.463" y2="-57.1722" gradientUnits="userSpaceOnUse">
<stop stop-color="#9586FF" stop-opacity="0"/>
<stop offset="0.505208" stop-color="#9586FF"/>
<stop offset="0.984375" stop-color="#9586FF" stop-opacity="0"/>
</linearGradient>
<linearGradient id="paint1_linear" x1="349.726" y1="168.34" x2="259.248" y2="9.59107" gradientUnits="userSpaceOnUse">
<stop stop-color="#9586FF" stop-opacity="0"/>
<stop offset="0.505208" stop-color="#9586FF"/>
<stop offset="0.984375" stop-color="#9586FF" stop-opacity="0"/>
</linearGradient>
<linearGradient id="paint2_linear" x1="563.322" y1="242.039" x2="407.825" y2="-30.7992" gradientUnits="userSpaceOnUse">
<stop stop-color="#9586FF" stop-opacity="0"/>
<stop offset="0.505208" stop-color="#9586FF"/>
<stop offset="0.984375" stop-color="#9586FF" stop-opacity="0"/>
</linearGradient>
<linearGradient id="paint3_linear" x1="642.429" y1="238.21" x2="365.512" y2="-245.987" gradientUnits="userSpaceOnUse">
<stop stop-color="#9586FF" stop-opacity="0"/>
<stop offset="0.505208" stop-color="#9586FF"/>
<stop offset="0.984375" stop-color="#9586FF" stop-opacity="0"/>
</linearGradient>
<linearGradient id="paint4_linear" x1="676.068" y1="109.629" x2="367.38" y2="-430.628" gradientUnits="userSpaceOnUse">
<stop stop-color="#9586FF" stop-opacity="0"/>
<stop offset="0.505208" stop-color="#9586FF"/>
<stop offset="0.984375" stop-color="#9586FF" stop-opacity="0"/>
</linearGradient>
<linearGradient id="paint5_linear" x1="619.241" y1="27.5594" x2="405.187" y2="-347.572" gradientUnits="userSpaceOnUse">
<stop stop-color="#9586FF" stop-opacity="0"/>
<stop offset="0.505208" stop-color="#9586FF"/>
<stop offset="0.984375" stop-color="#9586FF" stop-opacity="0"/>
</linearGradient>
<linearGradient id="paint6_linear" x1="561.147" y1="139.009" x2="378.542" y2="-181.05" gradientUnits="userSpaceOnUse">
<stop stop-color="#9586FF" stop-opacity="0"/>
<stop offset="0.505208" stop-color="#9586FF"/>
<stop offset="0.984375" stop-color="#9586FF" stop-opacity="0"/>
</linearGradient>
<linearGradient id="paint7_linear" x1="420.933" y1="6.02819" x2="342.101" y2="-132.337" gradientUnits="userSpaceOnUse">
<stop stop-color="#9586FF" stop-opacity="0"/>
<stop offset="0.505208" stop-color="#9586FF"/>
<stop offset="0.984375" stop-color="#9586FF" stop-opacity="0"/>
</linearGradient>
<linearGradient id="paint8_linear" x1="709.499" y1="137.088" x2="677.824" y2="-29.9839" gradientUnits="userSpaceOnUse">
<stop stop-color="#D1CBFF" stop-opacity="0"/>
<stop offset="0.505208" stop-color="#D1CBFF"/>
<stop offset="1" stop-color="#D1CBFF" stop-opacity="0"/>
</linearGradient>
<linearGradient id="paint9_linear" x1="652.408" y1="105.846" x2="563.005" y2="-50.8325" gradientUnits="userSpaceOnUse">
<stop stop-color="#D1CBFF" stop-opacity="0"/>
<stop offset="0.505208" stop-color="#D1CBFF"/>
<stop offset="1" stop-color="#D1CBFF" stop-opacity="0"/>
</linearGradient>
<linearGradient id="paint10_linear" x1="562.604" y1="19.0874" x2="562.604" y2="87.7584" gradientUnits="userSpaceOnUse">
<stop stop-color="#594AC4"/>
<stop offset="1" stop-color="#7364DB"/>
</linearGradient>
<linearGradient id="paint11_linear" x1="570.242" y1="-63.0776" x2="570.242" y2="109.715" gradientUnits="userSpaceOnUse">
<stop stop-color="#D1CBFF"/>
<stop offset="0.817708" stop-color="#D1CBFF" stop-opacity="0"/>
</linearGradient>
<linearGradient id="paint12_linear" x1="585.294" y1="-28.6302" x2="585.294" y2="92.9691" gradientUnits="userSpaceOnUse">
<stop stop-color="#D1CBFF"/>
<stop offset="0.817708" stop-color="#D1CBFF" stop-opacity="0"/>
</linearGradient>
<linearGradient id="paint13_linear" x1="600.347" y1="12.049" x2="600.347" y2="75.2952" gradientUnits="userSpaceOnUse">
<stop stop-color="#D1CBFF"/>
<stop offset="0.817708" stop-color="#D1CBFF" stop-opacity="0"/>
</linearGradient>
<linearGradient id="paint14_linear" x1="615.274" y1="34.3718" x2="615.274" y2="61.1296" gradientUnits="userSpaceOnUse">
<stop stop-color="#D1CBFF"/>
<stop offset="0.817708" stop-color="#D1CBFF" stop-opacity="0"/>
</linearGradient>
<linearGradient id="paint15_linear" x1="554.958" y1="-63.0776" x2="554.958" y2="110.607" gradientUnits="userSpaceOnUse">
<stop stop-color="#D1CBFF"/>
<stop offset="0.817708" stop-color="#D1CBFF" stop-opacity="0"/>
</linearGradient>
<linearGradient id="paint16_linear" x1="539.896" y1="-28.6302" x2="539.896" y2="92.9691" gradientUnits="userSpaceOnUse">
<stop stop-color="#D1CBFF"/>
<stop offset="0.817708" stop-color="#D1CBFF" stop-opacity="0"/>
</linearGradient>
<linearGradient id="paint17_linear" x1="524.845" y1="12.0486" x2="524.845" y2="75.2949" gradientUnits="userSpaceOnUse">
<stop stop-color="#D1CBFF"/>
<stop offset="0.817708" stop-color="#D1CBFF" stop-opacity="0"/>
</linearGradient>
<linearGradient id="paint18_linear" x1="509.926" y1="34.3718" x2="509.926" y2="61.1296" gradientUnits="userSpaceOnUse">
<stop stop-color="#D1CBFF"/>
<stop offset="0.817708" stop-color="#D1CBFF" stop-opacity="0"/>
</linearGradient>
<linearGradient id="paint19_linear" x1="562.5" y1="-98.6996" x2="562.5" y2="87.3004" gradientUnits="userSpaceOnUse">
<stop offset="0.338542" stop-color="#D1CBFF" stop-opacity="0"/>
<stop offset="1" stop-color="#D1CBFF"/>
</linearGradient>
<radialGradient id="paint20_radial" cx="0" cy="0" r="1" gradientUnits="userSpaceOnUse" gradientTransform="translate(393.475 109.869) rotate(0.65321) scale(20.0633 11.8036)">
<stop stop-color="#B7ADFF"/>
<stop offset="1" stop-color="#B7ADFF" stop-opacity="0"/>
</radialGradient>
<radialGradient id="paint21_radial" cx="0" cy="0" r="1" gradientUnits="userSpaceOnUse" gradientTransform="translate(498.021 99.4186) rotate(179.347) scale(20.0633 11.8036)">
<stop stop-color="#B7ADFF"/>
<stop offset="1" stop-color="#B7ADFF" stop-opacity="0"/>
</radialGradient>
<radialGradient id="paint22_radial" cx="0" cy="0" r="1" gradientUnits="userSpaceOnUse" gradientTransform="translate(608.257 110.483) rotate(0.653209) scale(20.0633 11.8036)">
<stop stop-color="#B7ADFF"/>
<stop offset="1" stop-color="#B7ADFF" stop-opacity="0"/>
</radialGradient>
</defs>
</svg>
